<?xml version="1.0" encoding="UTF-8" standalone="no"?>
<svg
   width="2048"
   height="2048"
   viewBox="0 0 2048 2048"
   fill="none"
   version="1.1"
   id="svg14"
   xmlns="http://www.w3.org/2000/svg"
   xmlns:svg="http://www.w3.org/2000/svg">
  <defs
     id="defs18" />
  <path
     d="m 362.269,631.2126 v 663.5906 c 0,74.3083 -54.43047,110.5984 -106.26901,125.2872 L 294.8789,1516 c 71.70998,-22.4653 189.21066,-80.3567 189.21066,-221.1968 V 631.2126 Z"
     fill="#f5f5f5"
     id="path2"
     style="fill:#161616;fill-opacity:1;stroke-width:34.0163" />
  <path
     d="M 527.288,725.39408 H 712.17913 V 1296.5313 H 833.99969 V 725.39408 H 1022.3464 V 631.2126 H 527.288 Z"
     fill="#f5f5f5"
     id="path4"
     style="fill:#161616;fill-opacity:1;stroke-width:34.0163" />
  <path
     d="m 1513.6288,723.66564 c 0,0 -60.4783,-104.54974 -209.9461,-104.54974 -144.2839,0 -281.6561,125.28728 -281.6561,362.90107 0,186.63483 115.7728,323.15483 275.6083,326.61103 130.4603,3.4562 185.7547,-53.5712 216.8579,-84.677 3.4559,-5.1843 14.6875,-13.8248 25.0553,-22.4653 l -77.7579,-77.7645 c -11.2316,13.8248 -75.1658,91.5893 -158.1075,88.9972 -85.5336,-2.5922 -158.1075,-100.2298 -158.1075,-230.70143 0,-175.40217 78.6217,-262.67125 157.2435,-262.67125 80.3498,0 130.4603,80.35633 130.4603,80.35633 z"
     fill="#f5f5f5"
     id="path6"
     style="fill:#161616;fill-opacity:1;stroke-width:34.0163" />
  <path
     fill-rule="evenodd"
     clip-rule="evenodd"
     d="m 1642.2999,995.8792 c 0.1463,-45.281 13.5515,-75.92757 30.7596,-92.59625 16.0686,-15.55971 39.93,-23.38719 73.6148,-14.35888 19.2048,5.14348 38.9435,-6.25246 44.09,-25.45885 5.1464,-19.20641 -6.2519,-38.9469 -25.4567,-44.0931 -54.6618,-14.64803 -105.6465,-3.3487 -142.3383,32.19029 -35.4536,34.34088 -52.6685,86.52407 -52.6685,145.06177 v 0.72798 l 0.031,0.72798 c 1.4491,35.75266 11.5889,62.66066 27.7459,84.12586 14.1433,18.788 32.0113,31.8678 45.3043,41.5969 0.9286,0.6769 1.8334,1.3403 2.7144,1.99 14.7794,10.8653 24.3035,18.5158 31.1473,28.6871 6.1533,9.1474 11.7487,22.945 11.7487,47.9378 0,29.3199 -17.6094,60.8339 -46.3996,86.6398 -29.2459,26.2208 -61.9885,39.3415 -81.3803,39.3415 -33.9502,0 -54.3455,-8.5045 -70.5093,-21.7748 -17.8952,-14.6888 -33.2529,-37.246 -53.0461,-71.5291 -9.9391,-17.2197 -31.9569,-23.1218 -49.1751,-13.1784 -17.2183,9.94 -23.1165,31.9596 -13.174,49.1794 19.7762,34.2558 40.6817,67.3517 69.7133,91.1845 30.7596,25.248 67.9446,38.1237 116.1912,38.1237 43.328,0 92.476,-24.5948 129.4364,-57.7281 37.4197,-33.5449 70.3426,-83.0237 70.3426,-140.2585 0,-36.9704 -8.6499,-65.3004 -24.0144,-88.1331 -14.6706,-21.8088 -33.9366,-35.9942 -48.2364,-46.509 -15.589,-11.4606 -25.5723,-18.8186 -33.1406,-28.8743 -6.4696,-8.5963 -12.2929,-20.9107 -13.2998,-43.0222 z"
     fill="#f5f5f5"
     id="path8"
     style="fill:#161616;fill-opacity:1;stroke-width:34.0163" />
  <path
     d="m 1354.494,631.45345 c -1.3232,17.50552 117.232,85.95973 131.7291,76.06057 14.4971,-9.8995 26.4124,-167.44851 13.2385,-175.05453 -13.1739,-7.60602 -143.6444,81.48878 -144.9676,98.99396 z"
     fill="#f5f5f5"
     id="path10"
     style="fill:#161616;fill-opacity:1;stroke-width:34.0163" />
  <path
     d="m 1249.6808,631.45345 c 1.3266,17.50552 -117.2319,85.95973 -131.729,76.06057 -14.4937,-9.8995 -26.4125,-167.44851 -13.2386,-175.05453 13.1739,-7.60602 143.6444,81.48878 144.9676,98.99396 z"
     fill="#f5f5f5"
     id="path12"
     style="fill:#161616;fill-opacity:1;stroke-width:34.0163" />
</svg>
