<?xml version="1.0" encoding="UTF-8" standalone="no"?>
<svg
   width="1536"
   height="984"
   viewBox="0 0 1536 984"
   fill="none"
   version="1.1"
   id="svg14"
   xmlns="http://www.w3.org/2000/svg"
   xmlns:svg="http://www.w3.org/2000/svg">
  <defs
     id="defs18" />
  <path
     d="m 106.26901,99.2126 v 663.59055 c 0,74.30831 -54.430474,110.59842 -106.2690138898341,125.28728 L 38.878906,984 C 110.58889,961.53469 228.08957,903.64333 228.08957,762.80315 V 99.2126 Z"
     fill="#f5f5f5"
     id="path2"
     style="stroke-width:34.0163" />
  <path
     d="M 271.28801,193.39408 H 456.17914 V 764.53125 H 577.9997 V 193.39408 H 766.34639 V 99.2126 H 271.28801 Z"
     fill="#f5f5f5"
     id="path4"
     style="stroke-width:34.0163" />
  <path
     d="m 1257.6288,191.66564 c 0,0 -60.4783,-104.54974 -209.9461,-104.54974 -144.28392,0 -281.65605,125.28728 -281.65605,362.90107 0,186.63485 115.77274,323.15478 275.60825,326.61098 130.4603,3.4562 185.7547,-53.57111 216.8579,-84.67692 3.4559,-5.1843 14.6875,-13.8248 25.0553,-22.46531 l -77.7579,-77.76451 c -11.2316,13.8248 -75.1658,91.58932 -158.1075,88.99717 -85.53358,-2.59215 -158.10753,-100.22983 -158.10753,-230.70141 0,-175.40217 78.62178,-262.67125 157.24353,-262.67125 80.3498,0 130.4603,80.35633 130.4603,80.35633 z"
     fill="#f5f5f5"
     id="path6"
     style="stroke-width:34.0163" />
  <path
     fill-rule="evenodd"
     clip-rule="evenodd"
     d="m 1386.2999,463.8792 c 0.1463,-45.281 13.5515,-75.92757 30.7596,-92.59625 16.0686,-15.55971 39.93,-23.38719 73.6148,-14.35888 19.2048,5.14348 38.9435,-6.25246 44.09,-25.45885 5.1464,-19.20641 -6.2519,-38.9469 -25.4567,-44.0931 -54.6618,-14.64803 -105.6465,-3.3487 -142.3383,32.19029 -35.4536,34.34088 -52.6685,86.52407 -52.6685,145.06177 v 0.72798 l 0.031,0.72798 c 1.4491,35.75263 11.5889,62.66065 27.7459,84.12584 14.1433,18.78798 32.0113,31.8678 45.3043,41.59687 0.9286,0.67695 1.8334,1.3403 2.7144,1.99004 14.7794,10.86526 24.3035,18.51584 31.1473,28.68714 6.1533,9.14737 11.7487,22.94496 11.7487,47.93778 0,29.31988 -17.6094,60.8339 -46.3996,86.63974 -29.2459,26.22086 -61.9885,39.3415 -81.3803,39.3415 -33.9502,0 -54.3455,-8.50443 -70.5093,-21.77474 -17.8952,-14.68886 -33.2529,-37.24601 -53.0461,-71.52907 -9.9391,-17.21978 -31.9569,-23.12185 -49.1751,-13.17847 -17.2183,9.93998 -23.1165,31.95965 -13.174,49.17942 19.7762,34.25585 40.6817,67.3517 69.7133,91.18451 30.7596,25.24796 67.9446,38.12367 116.1912,38.12367 43.328,0 92.476,-24.59482 129.4364,-57.72808 37.4197,-33.54488 70.3426,-83.02366 70.3426,-140.25848 0,-36.97046 -8.6499,-65.30042 -24.0144,-88.13312 -14.6706,-21.80876 -33.9366,-35.99415 -48.2364,-46.50903 -15.589,-11.46057 -25.5723,-18.81861 -33.1406,-28.87425 -6.4696,-8.59628 -12.2929,-20.91069 -13.2998,-43.02221 z"
     fill="#f5f5f5"
     id="path8"
     style="stroke-width:34.0163" />
  <path
     d="m 1098.494,99.45345 c -1.3232,17.50552 117.232,85.95973 131.7291,76.06057 14.4971,-9.8995 26.4124,-167.4485096 13.2385,-175.05452965 C 1230.2877,-7.1465296 1099.8172,81.94827 1098.494,99.45345 Z"
     fill="#f5f5f5"
     id="path10"
     style="stroke-width:34.0163" />
  <path
     d="m 993.68083,99.45345 c 1.32658,17.50552 -117.23197,85.95973 -131.72907,76.06057 C 847.45806,165.61452 835.53927,8.0655104 848.7132,0.45949035 861.88713,-7.1465296 992.35765,81.94827 993.68083,99.45345 Z"
     fill="#f5f5f5"
     id="path12"
     style="stroke-width:34.0163" />
</svg>
